#N canvas 134 23 1078 854 12;
#X obj 124 280 netreceive -u -b;
#X text 253 276 pour l'osc on veut être udp -u et binaire -b;
#X msg 133 248 listen 0 \, listen 8889;
#X obj 127 203 netsend -u -b;
#X msg 149 178 disconnect \, connect localhost 8889;
#X obj 129 112 oscformat /test/test2;
#X msg 152 77 1;
#X obj 125 305 oscparse;
#X obj 137 352 route test;
#X obj 137 373 route test2;
#X obj 126 439 print raw;
#X obj 137 393 print route;
#X obj 137 330 list trim;
#X text 283 336 exemple pour parse et route elements;
#X msg 142 55 symbol string1;
#X msg 130 30 list 12 43 545 564 string;
#X obj 23 135 loadbang;
#X obj 24 162 t b b;
#X text 414 205 <- netsend envoit;
#X text 416 178 <- Ici on définit à qui on envoit;
#X text 417 151 <- utiliser l'objet [trigger] tlt :);
#X text 333 28 < -exemples pour envoyer;
#X text 294 111 <- osc format defini l'adressage OSC;
#X connect 0 0 7 0;
#X connect 2 0 0 0;
#X connect 4 0 3 0;
#X connect 5 0 3 0;
#X connect 6 0 5 0;
#X connect 7 0 10 0;
#X connect 7 0 12 0;
#X connect 8 0 9 0;
#X connect 9 0 11 0;
#X connect 12 0 8 0;
#X connect 14 0 5 0;
#X connect 15 0 5 0;
#X connect 16 0 17 0;
#X connect 17 0 4 0;
#X connect 17 1 2 0;
