#N canvas -487 167 469 364 12;
#X obj 29 73 text define -k t_fader_map_\$0;
#A set # [type de input] [midi index] [fonction] [function index] [param1]
[param2] \; ctl 16 source-fader 1 horizon-1 cc \; ctl 20 source-fader
2 horizon-2 cc \; ctl 24 source-fader 3 horizon-3 cc \; ctl 28 source-fader
4 horizon-4 cc \; ctl 46 source-fader 5 horizon-5 cc \; ctl 50 source-fader
6 horizon-6 cc \; ctl 54 source-fader 7 horizon-7 cc \; ctl 58 source-fader
8 horizon-8 cc \; ctl 17 source-fader 9 horizon-9 cc \; ctl 21 source-fader
10 horizon-10 cc \; ctl 25 source-fader 11 horizon-11 cc \; ctl 29
source-fader 12 horizon-12 cc \; ctl 47 source-fader 13 horizon-13
cc \; ctl 51 source-fader 14 horizon-14 cc \; ctl 55 source-fader 15
horizon-15 cc \; ctl 59 source-fader 16 horizon-16 cc \; ctl 18 source-fader
17 horizon-17 cc \; ctl 22 source-fader 18 horizon-18 cc \; ctl 26
source-fader 19 horizon-19 cc \; ctl 30 source-fader 20 horizon-20
cc \; ctl 48 source-fader 21 horizon-21 cc \; ctl 52 source-fader 22
horizon-22 cc \; ctl 56 source-fader 23 horizon-23 cc \; ctl 60 source-fader
24 horizon-24 cc \; ctl 216 source-fader 25 horizon-25 cc \; ctl 220
source-fader 26 horizon-26 cc \; ctl 224 source-fader 27 horizon-27
cc \; ctl 228 source-fader 28 horizon-28 cc \; ctl 246 source-fader
29 horizon-29 cc \; ctl 250 source-fader 30 horizon-30 cc \; ctl 254
source-fader 31 horizon-31 cc \; ctl 258 source-fader 32 horizon-32
cc \; ctl 217 source-fader 33 horizon-33 cc \; ctl 221 source-fader
34 horizon-34 cc \; ctl 225 source-fader 35 horizon-35 cc \; ctl 229
source-fader 36 horizon-36 cc \; ctl 247 source-fader 37 horizon-37
cc \; ctl 251 source-fader 38 horizon-38 cc \; ctl 255 source-fader
39 horizon-39 cc \; ctl 218 source-fader 40 horizon-40 cc \; ctl 222
source-fader 41 horizon-41 cc \; ctl 226 source-fader 42 horizon-42
cc \; ctl 300 source-fader 200 horizon-visage cc \; ctl 262 source-fader
99 syphon-horizon cc \; ctl 500 source-fader 101 japon-1 cc \; ctl
500 source-fader 102 japon-2 cc \; ctl 500 source-fader 103 japon-3
cc \; ctl 62 source-fader 1 playback-horizon cc \; ctl 200 param-fader
1 grp-fx-1 cc saturation -1 0 \; ctl 19 source-fader 1 Media-Source-1
cc \; ctl 23 source-fader 2 Media-Source-2 cc \; ctl 27 source-fader
3 Media-Source-3 cc \; ctl 31 source-fader 4 Media-Source-4 cc \; ctl
49 source-fader 5 Media-Source-5 cc \; ctl 53 source-fader 6 Media-Source-6
cc \; ctl 57 source-fader 7 Media-Source-7 cc \; ctl 61 source-fader
8 Media-Source-8 cc \;;
#X msg 29 48 write fader_map.txt;
#N canvas -733 232 450 300 main_fader 0;
#X obj 76 65 inlet;
#X obj 208 157 outlet;
#X text 9 16 fonction de transfert entre une valeur midi et l'opacité
;
#X obj 77 148 route 1;
#X obj 78 92 list trim;
#X obj 78 118 route main_fader;
#X obj 126 199 oscformat;
#X connect 0 0 4 0;
#X connect 4 0 5 0;
#X connect 5 0 3 0;
#X connect 5 1 1 0;
#X restore 48 271 pd main_fader;
#N canvas -1767 167 1036 808 sources_fader 0;
#X obj 17 24 inlet;
#X obj 155 107 outlet;
#X obj 17 107 route source-fader;
#X text 73 23 fonction de transfert entre une valeur 0 a 1 et l'opacité
quand 0 \, le media est suspendu pour préserver des ressources \,
possibilité de redémarer la source aussi et;
#X obj 22 349 clone source-fader 512;
#X obj 50 183 list split 4;
#X obj 22 143 t a a;
#X obj 51 214 list split 1;
#X obj 24 286 list prepend;
#X connect 0 0 2 0;
#X connect 2 0 6 0;
#X connect 2 1 1 0;
#X connect 5 1 7 0;
#X connect 6 0 8 0;
#X connect 6 1 5 0;
#X connect 7 0 8 1;
#X connect 8 0 4 0;
#X restore 48 296 pd sources_fader;
#N canvas -586 554 564 452 ctlin 0;
#X obj 55 465 outlet;
#X obj 54 113 pack;
#X msg 55 147 \$2 \$1;
#X obj 54 246 unpack, f 17;
#X obj 177 278 / 127;
#X text 228 276 vers float 0-1;
#X obj 56 396 list append;
#X obj 54 309 text search t_fader_map_\$0;
#X obj 54 278 list prepend ctl;
#X obj 55 367 text get t_fader_map_\$0 2;
#X obj 56 424 list append;
#X obj 54 333 t a a;
#X obj 165 335 text get t_fader_map_\$0;
#X text 343 336 toute la ligne d argument;
#X text 175 426 valeur en float apres le nom de fonction;
#X obj 70 176 spigot;
#X obj 106 147 tgl 15 0 empty empty empty 17 7 0 10 -262144 -1 -1 0
1;
#X obj 70 201 print;
#X text 209 67 donnee et connexion au micro controlleur;
#X text 175 396 append \; ajouter apres;
#X obj 54 9 ctlin;
#X floatatom 115 202 5 0 0 0 - - -;
#X obj 110 14 sel 1 17;
#X obj 71 82 expr $f1+$f2;
#X msg 110 44 0;
#X msg 149 44 200;
#X connect 1 0 2 0;
#X connect 2 0 3 0;
#X connect 2 0 15 0;
#X connect 3 0 8 0;
#X connect 3 1 4 0;
#X connect 4 0 6 1;
#X connect 6 0 10 0;
#X connect 7 0 11 0;
#X connect 8 0 7 0;
#X connect 9 0 6 0;
#X connect 10 0 0 0;
#X connect 11 0 9 0;
#X connect 11 1 12 0;
#X connect 12 0 10 1;
#X connect 15 0 17 0;
#X connect 15 0 21 0;
#X connect 16 0 15 1;
#X connect 20 0 1 0;
#X connect 20 1 23 0;
#X connect 20 2 22 0;
#X connect 22 0 24 0;
#X connect 22 1 25 0;
#X connect 23 0 1 1;
#X connect 24 0 23 1;
#X connect 25 0 23 1;
#X restore 42 174 pd ctlin;
#N canvas 119 226 562 504 notein 0;
#X obj 46 368 outlet;
#X obj 183 164 / 127;
#X text 234 162 vers float 0-1;
#X obj 47 282 list append;
#X obj 45 195 text search t_fader_map_\$0;
#X obj 46 253 text get t_fader_map_\$0 2;
#X obj 47 327 list append;
#X obj 45 219 t a a;
#X obj 135 327 text get t_fader_map_\$0;
#X text 313 311 toute la ligne d argument;
#X text 145 281 valeur en float apres le nom de fonction;
#X obj 46 49 notein;
#X obj 45 164 list prepend note;
#X obj 266 83 spigot;
#X obj 325 60 tgl 15 0 empty empty empty 17 7 0 10 -262144 -1 -1 0
1;
#X obj 266 107 print;
#X connect 1 0 3 1;
#X connect 3 0 6 0;
#X connect 4 0 7 0;
#X connect 5 0 3 0;
#X connect 6 0 0 0;
#X connect 7 0 5 0;
#X connect 7 1 8 0;
#X connect 8 0 6 1;
#X connect 11 0 12 0;
#X connect 11 0 13 0;
#X connect 11 1 1 0;
#X connect 12 0 4 0;
#X connect 13 0 15 0;
#X connect 14 0 13 1;
#X restore 49 195 pd notein;
#X obj 48 244 t a;
#N canvas 639 366 450 300 netsend-obs-osc 0;
#X obj 26 228 netsend -u -b;
#X obj 26 14 r to-obs-osc;
#X obj 39 166 loadbang;
#X obj 80 69 oscparse;
#X obj 80 43 spigot;
#X obj 124 19 tgl 15 0 empty empty empty 17 7 0 10 -262144 -1 -1 0
1;
#X obj 80 98 print NETSEND-OBS-OSC;
#X msg 37 191 disconnect \, connect 10.0.1.40 3333;
#X connect 1 0 0 0;
#X connect 1 0 4 0;
#X connect 2 0 7 0;
#X connect 3 0 6 0;
#X connect 4 0 3 0;
#X connect 5 0 4 1;
#X connect 7 0 0 0;
#X restore 47 394 pd netsend-obs-osc;
#N canvas -1239 101 936 740 oscrouter 0;
#X obj 130 88 netreceive -u -b;
#X obj 130 36 loadbang;
#X obj 135 517 text search t_fader_map_\$0 2;
#X obj 167 435 list length;
#X obj 135 485 list split, f 22;
#X obj 135 408 t a a;
#X obj 167 459 - 1;
#X obj 130 114 oscparse;
#X obj 135 619 list append;
#X obj 135 647 list append;
#X text 558 482 toute la ligne d argument;
#X text 454 437 valeur en float apres le nom de fonction;
#X obj 135 540 t a a;
#X obj 135 567 text get t_fader_map_\$0 2;
#X obj 223 620 text get t_fader_map_\$0;
#X obj 134 684 outlet;
#X obj 70 55 inlet;
#X obj 318 165 spigot;
#X obj 366 166 tgl 15 0 empty empty empty 17 7 0 10 -262144 -1 -1 0
1;
#X msg 130 63 listen 0 \, listen 33332;
#X obj 135 374 list trim;
#X obj 130 176 list split 1;
#X obj 171 204 list split 1;
#X obj 171 229 f;
#X obj 209 235 list split 1;
#X obj 209 260 f;
#X obj 171 288 list append;
#X obj 131 314 list append;
#X msg 9 349 source-fader 4 0;
#X obj 319 190 print oscin;
#X obj 407 100 print;
#X obj 330 379 route reset;
#X obj 418 379 route cue_japon_1;
#X obj 418 404 bng 15 250 50 0 cue_japon_1 empty cue_japon_1 17 7 0
10 -262144 -1 -1;
#X obj 330 404 bng 15 250 50 0 cue_reset empty cue_reset 17 7 0 10
-262144 -1 -1;
#X obj 549 380 route cue_japon_1_horizon;
#X obj 549 406 bng 15 250 50 0 cue_japon_1_horizon empty cue_japon_1_horizon
17 7 0 10 -262144 -1 -1;
#X obj 219 343 print;
#X obj 746 405 bng 15 250 50 0 cue_japon_2 empty cue_japon_2 17 7 0
10 -262144 -1 -1;
#X obj 746 379 route cue_japon_2;
#X connect 0 0 7 0;
#X connect 1 0 19 0;
#X connect 2 0 12 0;
#X connect 3 0 6 0;
#X connect 4 0 2 0;
#X connect 4 1 8 1;
#X connect 5 0 4 0;
#X connect 5 1 3 0;
#X connect 6 0 4 1;
#X connect 7 0 17 0;
#X connect 7 0 21 0;
#X connect 7 0 30 0;
#X connect 8 0 9 0;
#X connect 9 0 15 0;
#X connect 12 0 13 0;
#X connect 12 1 14 0;
#X connect 13 0 8 0;
#X connect 14 0 9 1;
#X connect 16 0 20 0;
#X connect 17 0 29 0;
#X connect 18 0 17 1;
#X connect 19 0 0 0;
#X connect 20 0 5 0;
#X connect 20 0 31 0;
#X connect 20 0 37 0;
#X connect 21 0 27 0;
#X connect 21 1 22 0;
#X connect 22 0 23 0;
#X connect 22 1 24 0;
#X connect 23 0 26 0;
#X connect 24 0 25 0;
#X connect 25 0 26 1;
#X connect 26 0 27 1;
#X connect 27 0 20 0;
#X connect 28 0 20 0;
#X connect 31 0 34 0;
#X connect 31 1 32 0;
#X connect 32 0 33 0;
#X connect 32 1 35 0;
#X connect 35 0 36 0;
#X connect 35 1 39 0;
#X connect 39 0 38 0;
#X restore 27 150 pd oscrouter;
#N canvas 0 23 682 614 systemcommand_wip 0;
#X obj 105 288 ggee/shell;
#X obj 104 179 text get commandes;
#X obj 103 326 print me;
#N canvas 0 22 1110 413 pas_clair 0;
#X obj 37 37 inlet;
#X obj 37 201 outlet;
#X obj 109 90 list prepend set;
#X obj 109 114 list trim;
#X obj 37 62 t b a;
#X obj 35 123 print;
#X obj 43 170 list trim;
#X connect 0 0 4 0;
#X connect 2 0 3 0;
#X connect 4 1 5 0;
#X connect 4 1 6 0;
#X connect 6 0 1 0;
#X restore 126 235 pd pas_clair;
#X msg 108 152 2;
#X msg 75 93 curl -XPOST -H "Content-type: application/json" -d '{"scene-name":"out"}'
'http://127.0.0.1:4445/emit/SetCurrentScene' \;, f 158;
#X obj 77 49 text define -k commandes;
#A set ls -l \; npx obs-cli SetRecordingFolder='{ "rec-folder": "/Users/gllm/Videos"
}' \; curl -XPOST -H "Content-type: application/json" -d '{"scene-name":"out"}'
'http://127.0.0.1:4445/emit/SetCurrentScene' \;;
#X msg 76 24 write obs-commandes.txt;
#X connect 0 0 2 0;
#X connect 0 1 2 0;
#X connect 1 0 3 0;
#X connect 3 0 0 0;
#X connect 4 0 1 0;
#X connect 5 0 0 0;
#X connect 7 0 6 0;
#X restore 295 30 pd systemcommand_wip;
#N canvas -1241 122 639 842 gui 0;
#X msg 224 334 0;
#X obj 225 383 send gui-out;
#X msg 225 359 source-fader 102 \$1;
#N canvas -1696 334 611 449 reset 0;
#X obj 23 7 inlet;
#X obj 23 37 t b b;
#X msg 253 58 1;
#X msg 286 59 0;
#N canvas 0 22 450 300 shutter 0;
#X obj 39 27 inlet;
#X obj 55 118 pdcontrol;
#X msg 55 95 dir;
#X obj 41 63 t f b;
#X obj 32 202 list trim;
#X obj 171 49 tgl 15 0 empty empty empty 17 7 0 10 -262144 -1 -1 0
1;
#X obj 32 178 list prepend;
#X obj 31 232 ggee/shell;
#X obj 55 142 makefilename %s/scripts/shutter.sh;
#X obj 31 256 print shutter_shell;
#X connect 0 0 3 0;
#X connect 1 0 8 0;
#X connect 2 0 1 0;
#X connect 3 0 6 0;
#X connect 3 1 2 0;
#X connect 4 0 7 0;
#X connect 5 0 3 0;
#X connect 6 0 4 0;
#X connect 7 0 9 0;
#X connect 7 1 9 0;
#X connect 8 0 6 1;
#X restore 253 90 pd shutter;
#X obj 87 16 bng 15 250 50 0 empty empty empty 17 7 0 10 -262144 -1
-1;
#X obj 24 248 send gui-out;
#X msg 24 209 source-fader \$1 0 \;;
#X obj 28 130 until;
#X obj 121 165 v i;
#X obj 26 96 t f b;
#X msg 92 124 0;
#X obj 23 165 expr i=i+1 \; i;
#X msg 199 180 102;
#X msg 27 62 300;
#X connect 0 0 1 0;
#X connect 1 0 14 0;
#X connect 1 1 3 0;
#X connect 2 0 4 0;
#X connect 3 0 4 0;
#X connect 5 0 1 0;
#X connect 7 0 6 0;
#X connect 8 0 12 0;
#X connect 10 0 8 0;
#X connect 10 1 11 0;
#X connect 11 0 9 0;
#X connect 12 0 7 0;
#X connect 13 0 7 0;
#X connect 14 0 10 0;
#X restore 56 51 pd reset;
#X obj 316 16 bng 15 250 50 0 empty cue_japon_1 cue_japon_1 17 7 0
10 -262144 -1 -1;
#X obj 377 215 bng 15 250 50 0 empty cue_japon_1_horizon cue_japon_1_horizon
17 7 0 10 -262144 -1 -1;
#X obj 56 32 bng 15 250 50 0 empty cue_reset cue_reset 17 7 0 10 -262144
-1 -1;
#X obj 58 108 bng 15 250 50 0 empty cue_japon_2 cue_japon_2 17 7 0
10 -262144 -1 -1;
#X obj 58 179 line 0;
#X obj 57 238 send gui-out;
#X msg 57 207 source-fader 102 \$1;
#X msg 57 155 0 \, 1 10000;
#X obj 50 615 bng 15 250 50 0 empty cue_horizon_visage cue_horizon_visage
17 7 0 10 -262144 -1 -1;
#X msg 51 634 \; gui-out source-fader 200 0 \; gui-out source-fader
200 1 \;;
#X obj 283 702 bng 15 250 50 0 empty empty cue_horizon_visage_out 17
7 0 10 -262144 -1 -1;
#X msg 284 721 \; gui-out source-fader 200 0 \;;
#X obj 145 137 bng 15 250 50 0 empty empty fermer_japon_2 17 7 0 10
-262144 -1 -1;
#X msg 144 156 0;
#X obj 59 127 t b b;
#X obj 48 434 bng 15 250 50 0 empty cue_japon_2_out cue_japon_2_out
17 7 0 10 -262144 -1 -1;
#X obj 48 505 line 0;
#X obj 47 556 send gui-out;
#X msg 47 533 source-fader 102 \$1;
#X obj 49 453 t b b;
#X msg 47 481 1 \, 0 8000;
#X obj 203 508 line 0;
#X msg 197 480 1 \, 0 8000;
#X msg 204 535 source-fader 102 \$1;
#X msg 377 236 \; shutter 0 \;;
#X msg 317 35 \; gui-out source-fader 101 0 \; gui-out source-fader
101 1 \; gui-out source-fader 10 0 \; gui-out source-fader 11 0 \;
gui-out source-fader 12 0 \; gui-out source-fader 13 0 \; gui-out source-fader
14 0 \; gui-out source-fader 15 0 \; gui-out source-fader 16 0 \; shutter
1 \;;
#X obj 59 779 outlet;
#X obj 61 751 r gui-out;
#X connect 0 0 2 0;
#X connect 2 0 1 0;
#X connect 4 0 29 0;
#X connect 5 0 28 0;
#X connect 6 0 3 0;
#X connect 7 0 18 0;
#X connect 8 0 10 0;
#X connect 10 0 9 0;
#X connect 11 0 8 0;
#X connect 12 0 13 0;
#X connect 14 0 15 0;
#X connect 16 0 17 0;
#X connect 17 0 10 0;
#X connect 18 0 11 0;
#X connect 18 1 17 0;
#X connect 19 0 23 0;
#X connect 20 0 22 0;
#X connect 22 0 21 0;
#X connect 23 0 24 0;
#X connect 23 1 26 0;
#X connect 24 0 20 0;
#X connect 25 0 27 0;
#X connect 26 0 25 0;
#X connect 31 0 30 0;
#X restore 27 125 pd gui;
#N canvas -645 315 563 660 param_fader 0;
#X obj 17 1 inlet;
#X obj 19 90 list split 1;
#X obj 52 139 v float_param;
#X obj 23 223 v float_param;
#X obj 140 76 outlet;
#X obj 197 320 send to-obs-osc;
#X obj 197 290 oscformat;
#X obj 23 262 * 100;
#X obj 156 138 list split 4;
#X obj 20 115 t b f;
#X obj 118 433 list prepend;
#X obj 199 400 list split 1;
#X obj 118 400 bng 15 250 50 0 empty empty empty 17 7 0 10 -262144
-1 -1;
#X obj 119 553 oscformat;
#X obj 144 497 list prepend set;
#X obj 144 521 list trim;
#X obj 118 465 t b a;
#X obj 119 582 send to-obs-osc;
#X text 80 4 fonction de transfert;
#X obj 22 183 t b;
#X obj 17 55 route param-fader;
#X obj 196 172 list split 3;
#X obj 196 225 list prepend set;
#X obj 196 257 list trim;
#X obj 236 199 print;
#X connect 0 0 20 0;
#X connect 1 0 9 0;
#X connect 1 1 8 0;
#X connect 3 0 7 0;
#X connect 6 0 5 0;
#X connect 8 1 21 0;
#X connect 9 0 19 0;
#X connect 9 1 2 0;
#X connect 10 0 16 0;
#X connect 11 0 10 1;
#X connect 12 0 10 0;
#X connect 13 0 17 0;
#X connect 14 0 15 0;
#X connect 15 0 13 0;
#X connect 16 0 13 0;
#X connect 16 1 14 0;
#X connect 19 0 3 0;
#X connect 20 0 1 0;
#X connect 20 1 4 0;
#X connect 21 0 22 0;
#X connect 21 1 24 0;
#X connect 22 0 23 0;
#X connect 23 0 6 0;
#X restore 48 361 pd param_fader;
#X obj 85 220 spigot;
#X obj 135 220 tgl 15 0 empty empty empty 17 7 0 10 -262144 -1 -1 0
1;
#X obj 85 244 print MIDI_fun;
#N canvas 39 62 450 300 sous-titrage 0;
#X obj 221 98 text define txt-st-jp;
#X obj 164 274;
#X restore 344 108 pd sous-titrage;
#X obj 338 162 r shutter;
#N canvas -585 347 450 300 shutter 0;
#X obj 39 27 inlet;
#X obj 55 118 pdcontrol;
#X msg 55 95 dir;
#X obj 41 63 t f b;
#X obj 32 202 list trim;
#X obj 171 49 tgl 15 0 empty empty empty 17 7 0 10 -262144 -1 -1 0
1;
#X obj 32 178 list prepend;
#X obj 31 232 ggee/shell;
#X obj 55 142 makefilename %s/scripts/shutter.sh;
#X obj 31 256 print shutter_shell;
#X connect 0 0 3 0;
#X connect 1 0 8 0;
#X connect 2 0 1 0;
#X connect 3 0 6 0;
#X connect 3 1 2 0;
#X connect 4 0 7 0;
#X connect 5 0 3 0;
#X connect 6 0 4 0;
#X connect 7 0 9 0;
#X connect 7 1 9 0;
#X connect 8 0 6 1;
#X restore 338 205 pd shutter;
#X obj 337 185 tgl 15 0 empty empty empty 17 7 0 10 -262144 -1 -1 0
1;
#N canvas -553 267 450 300 note_reset 0;
#X obj 37 37 inlet;
#X obj 36 159 outlet;
#X obj 43 89 t a a;
#X connect 0 0 2 0;
#X connect 2 0 1 0;
#X restore 47 328 pd note_reset;
#X connect 1 0 0 0;
#X connect 2 0 3 0;
#X connect 3 0 19 0;
#X connect 4 0 6 0;
#X connect 4 0 12 0;
#X connect 5 0 6 0;
#X connect 5 0 12 0;
#X connect 6 0 2 0;
#X connect 8 0 6 0;
#X connect 10 0 8 0;
#X connect 12 0 14 0;
#X connect 13 0 12 1;
#X connect 16 0 18 0;
#X connect 18 0 17 0;
#X connect 19 0 11 0;
