#N canvas 619 78 725 440 12;
#X obj 306 33 text define -k t_fader_map_\$0;
#A set # [type de input] [midi index] [fonction] [function index] [param1]
[param2] \; ctl 62 main_fader 1 \; ctl 19 source_fader 1 Media-Source-1
cc \; ctl 23 source_fader 2 Media-Source-2 cc \; ctl 27 source_fader
3 Media-Source-3 cc \; ctl 31 source_fader 4 Media-Source-4 cc \; ctl
49 source_fader 5 Media-Source-5 cc \; ctl 53 source_fader 6 Media-Source-6
cc \; ctl 57 source_fader 7 Media-Source-7 cc \; ctl 61 source_fader
8 Media-Source-8 cc \; note 3 media_restart 1 \;;
#X msg 306 8 write fader_map.txt;
#N canvas 764 243 450 300 main_fader 0;
#X obj 76 65 inlet;
#X obj 208 157 outlet;
#X text 9 16 fonction de transfert entre une valeur midi et l'opacité
;
#X obj 77 148 route 1;
#X obj 78 92 list trim;
#X obj 78 118 route main_fader;
#X obj 77 225 outlet;
#X obj 126 199 oscformat;
#X connect 0 0 4 0;
#X connect 3 0 6 0;
#X connect 4 0 5 0;
#X connect 5 0 3 0;
#X connect 5 1 1 0;
#X restore 32 87 pd main_fader;
#N canvas 291 138 908 524 sources_fader 0;
#X obj 17 1 inlet;
#X obj 17 55 route source_fader;
#X text 123 385 pause;
#X obj 128 290 change;
#X text 189 385 play;
#X obj 19 90 list split 1;
#X obj 128 265 expr $f1!=0;
#X obj 128 320 sel 0 1;
#X obj 51 145 v float_param;
#X obj 128 234 v float_param;
#X obj 22 183 t b b b;
#X obj 23 223 v float_param;
#X obj 148 76 outlet;
#X obj 338 216 list prepend set;
#X obj 337 252 list trim;
#X obj 337 323 send to-obs-osc;
#X obj 337 293 oscformat;
#X obj 23 262 * 100;
#X obj 285 127 list split 4;
#X obj 336 189 list append opacity;
#X obj 20 115 t b f;
#X obj 247 422 list prepend;
#X obj 328 389 list split 1;
#X obj 326 157 t a a;
#X obj 264 386 bng 15 250 50 0 empty empty empty 17 7 0 10 -262144
-1 -1;
#X obj 248 542 oscformat;
#X obj 273 486 list prepend set;
#X obj 273 510 list trim;
#X obj 247 454 t b a;
#X obj 244 575 send to-obs-osc;
#X msg 107 353 mediaPause;
#X msg 200 354 mediaRestart;
#X text 80 4 fonction de transfert entre une valeur midi et l'opacité
et redemarage du media a zero;
#X connect 0 0 1 0;
#X connect 1 0 5 0;
#X connect 1 1 12 0;
#X connect 3 0 7 0;
#X connect 5 0 20 0;
#X connect 5 1 18 0;
#X connect 6 0 3 0;
#X connect 7 0 30 0;
#X connect 7 1 31 0;
#X connect 9 0 6 0;
#X connect 10 0 11 0;
#X connect 10 1 9 0;
#X connect 11 0 17 0;
#X connect 13 0 14 0;
#X connect 14 0 16 0;
#X connect 16 0 15 0;
#X connect 17 0 16 0;
#X connect 18 1 23 0;
#X connect 19 0 13 0;
#X connect 20 0 10 0;
#X connect 20 1 8 0;
#X connect 21 0 28 0;
#X connect 22 0 21 1;
#X connect 23 0 22 0;
#X connect 23 1 19 0;
#X connect 24 0 21 0;
#X connect 25 0 29 0;
#X connect 26 0 27 0;
#X connect 27 0 25 0;
#X connect 28 0 25 0;
#X connect 28 1 26 0;
#X connect 30 0 21 0;
#X connect 31 0 21 0;
#X restore 32 112 pd sources_fader;
#N canvas 699 77 562 504 ctlin 1;
#X obj 46 351 outlet;
#X obj 46 49 ctlin, f 6;
#X obj 45 75 pack;
#X msg 46 99 \$2 \$1;
#X obj 45 132 unpack, f 17;
#X obj 168 164 / 127;
#X text 219 162 vers float 0-1;
#X obj 47 282 list append;
#X obj 45 195 text search t_fader_map_\$0;
#X obj 45 164 list prepend ctl;
#X obj 46 253 text get t_fader_map_\$0 2;
#X obj 47 310 list append;
#X obj 45 219 t a a;
#X obj 135 310 text get t_fader_map_\$0;
#X text 313 311 toute la ligne d argument;
#X text 145 281 valeur en float apres le nom de fonction;
#X connect 1 0 2 0;
#X connect 1 1 2 1;
#X connect 2 0 3 0;
#X connect 3 0 4 0;
#X connect 4 0 9 0;
#X connect 4 1 5 0;
#X connect 5 0 7 1;
#X connect 7 0 11 0;
#X connect 8 0 12 0;
#X connect 9 0 8 0;
#X connect 10 0 7 0;
#X connect 11 0 0 0;
#X connect 12 0 10 0;
#X connect 12 1 13 0;
#X connect 13 0 11 1;
#X restore 32 10 pd ctlin;
#N canvas 119 226 562 504 notein 0;
#X obj 46 351 outlet;
#X obj 183 164 / 127;
#X text 234 162 vers float 0-1;
#X obj 47 282 list append;
#X obj 45 195 text search t_fader_map_\$0;
#X obj 46 253 text get t_fader_map_\$0 2;
#X obj 47 310 list append;
#X obj 45 219 t a a;
#X obj 135 310 text get t_fader_map_\$0;
#X text 313 311 toute la ligne d argument;
#X text 145 281 valeur en float apres le nom de fonction;
#X obj 46 49 notein;
#X obj 45 164 list prepend note;
#X connect 1 0 3 1;
#X connect 3 0 6 0;
#X connect 4 0 7 0;
#X connect 5 0 3 0;
#X connect 6 0 0 0;
#X connect 7 0 5 0;
#X connect 7 1 8 0;
#X connect 8 0 6 1;
#X connect 11 0 12 0;
#X connect 11 1 1 0;
#X connect 12 0 4 0;
#X restore 114 10 pd notein;
#X obj 32 43 t a;
#N canvas 0 22 450 300 netsend-obs-osc 0;
#X obj 26 228 netsend -u -b;
#X obj 26 14 r to-obs-osc;
#X obj 39 166 loadbang;
#X obj 80 69 oscparse;
#X msg 37 191 disconnect \, connect localhost 3333;
#X obj 80 43 spigot;
#X obj 124 19 tgl 15 0 empty empty empty 17 7 0 10 -262144 -1 -1 1
1;
#X obj 80 98 print NETSEND-OBS-OSC;
#X connect 1 0 0 0;
#X connect 1 0 5 0;
#X connect 2 0 4 0;
#X connect 3 0 7 0;
#X connect 4 0 0 0;
#X connect 5 0 3 0;
#X connect 6 0 5 1;
#X restore 31 169 pd netsend-obs-osc;
#N canvas 89 147 657 552 oscrouter 0;
#X obj 130 88 netreceive -u -b;
#X obj 130 36 loadbang;
#X msg 130 62 listen 3332;
#X obj 129 282 text search t_fader_map_\$0 2;
#X obj 162 203 list length;
#X msg 286 100 source_fader 1 0.95959;
#X obj 130 151 list;
#X obj 130 253 list split;
#X obj 130 176 t a a;
#X obj 162 227 - 1;
#X obj 130 120 oscparse;
#X obj 128 370 list append;
#X obj 128 398 list append;
#X text 569 443 toute la ligne d argument;
#X text 299 361 valeur en float apres le nom de fonction;
#X obj 129 305 t a a;
#X obj 129 332 text get t_fader_map_\$0 2;
#X obj 234 395 text get t_fader_map_\$0;
#X obj 127 435 outlet;
#X connect 0 0 10 0;
#X connect 1 0 2 0;
#X connect 2 0 0 0;
#X connect 3 0 15 0;
#X connect 4 0 9 0;
#X connect 5 0 6 0;
#X connect 6 0 8 0;
#X connect 7 0 3 0;
#X connect 7 1 11 1;
#X connect 8 0 7 0;
#X connect 8 1 4 0;
#X connect 9 0 7 1;
#X connect 10 0 6 0;
#X connect 11 0 12 0;
#X connect 12 0 18 0;
#X connect 15 0 16 0;
#X connect 15 1 17 0;
#X connect 16 0 11 0;
#X connect 17 0 12 1;
#X restore 197 10 pd oscrouter;
#N canvas 0 22 682 614 systemcommand_wip 0;
#X obj 105 288 ggee/shell;
#X obj 104 179 text get commandes;
#X obj 131 328 print me;
#N canvas 0 22 1110 413 pas_clair 0;
#X obj 37 37 inlet;
#X obj 37 201 outlet;
#X obj 109 90 list prepend set;
#X obj 109 114 list trim;
#X obj 37 62 t b a;
#X obj 35 123 print;
#X obj 43 170 list trim;
#X connect 0 0 4 0;
#X connect 2 0 3 0;
#X connect 4 1 5 0;
#X connect 4 1 6 0;
#X connect 6 0 1 0;
#X restore 126 235 pd pas_clair;
#X msg 108 152 2;
#X msg 75 93 curl -XPOST -H "Content-type: application/json" -d '{"scene-name":"out"}'
'http://127.0.0.1:4445/emit/SetCurrentScene' \;, f 158;
#X obj 77 49 text define -k commandes;
#A set ls -l \; npx obs-cli SetRecordingFolder='{ "rec-folder": "/Users/gllm/Videos"
}' \; curl -XPOST -H "Content-type: application/json" -d '{"scene-name":"out"}'
'http://127.0.0.1:4445/emit/SetCurrentScene' \;;
#X msg 76 24 write obs-commandes.txt;
#X connect 0 0 2 0;
#X connect 0 1 2 0;
#X connect 1 0 3 0;
#X connect 3 0 0 0;
#X connect 4 0 1 0;
#X connect 5 0 0 0;
#X connect 7 0 6 0;
#X restore 411 199 pd systemcommand_wip;
#X connect 1 0 0 0;
#X connect 2 1 3 0;
#X connect 4 0 6 0;
#X connect 5 0 6 0;
#X connect 6 0 2 0;
#X connect 8 0 6 0;
