#N canvas 804 87 548 447 12;
#X obj 29 73 text define -k t_fader_map_\$0;
#A set # [type de input] [midi index] [fonction] [function index] [param1]
[param2] \; ctl 16 source-fader 1 horizon-1 cc \; ctl 17 source-fader
2 horizon-2 cc \; ctl 18 source-fader 3 horizon-3 cc \; ctl 20 source-fader
4 horizon-4 cc \; ctl 21 source-fader 5 horizon-5 cc \; ctl 22 source-fader
6 horizon-6 cc \; ctl 24 source-fader 7 horizon-7 cc \; ctl 25 source-fader
8 horizon-8 cc \; ctl 26 source-fader 9 horizon-9 cc \; ctl 28 source-fader
10 horizon-10 cc \; ctl 29 source-fader 11 horizon-11 cc \; ctl 30
source-fader 12 horizon-12 cc \; ctl 46 source-fader 13 horizon-13
cc \; ctl 47 source-fader 14 horizon-14 cc \; ctl 48 source-fader 15
horizon-15 cc \; ctl 50 source-fader 16 horizon-16 cc \; ctl 51 source-fader
17 horizon-17 cc \; ctl 52 source-fader 18 horizon-18 cc \; ctl 54
source-fader 19 horizon-19 cc \; ctl 55 source-fader 20 horizon-20
cc \; ctl 56 source-fader 21 horizon-21 cc \; ctl 200 source-fader
101 japon-1 cc \; ctl 200 source-fader 102 japon-2 cc \; ctl 200 source-fader
103 japon-3 cc \; ctl 58 source-fader 1 syphon-horizon cc \; ctl 62
source-fader 1 playback-horizon cc \; ctl 200 param-fader 1 grp-fx-1
cc saturation -1 0 \; ctl 19 source-fader 1 Media-Source-1 cc \; ctl
23 source-fader 2 Media-Source-2 cc \; ctl 27 source-fader 3 Media-Source-3
cc \; ctl 31 source-fader 4 Media-Source-4 cc \; ctl 49 source-fader
5 Media-Source-5 cc \; ctl 53 source-fader 6 Media-Source-6 cc \; ctl
57 source-fader 7 Media-Source-7 cc \; ctl 61 source-fader 8 Media-Source-8
cc \; ctl note 3 media-restart 1 \;;
#X msg 29 48 write fader_map.txt;
#N canvas 764 243 450 300 main_fader 0;
#X obj 76 65 inlet;
#X obj 208 157 outlet;
#X text 9 16 fonction de transfert entre une valeur midi et l'opacité
;
#X obj 77 148 route 1;
#X obj 78 92 list trim;
#X obj 78 118 route main_fader;
#X obj 126 199 oscformat;
#X connect 0 0 4 0;
#X connect 4 0 5 0;
#X connect 5 0 3 0;
#X connect 5 1 1 0;
#X restore 48 271 pd main_fader;
#N canvas 0 101 577 639 sources_fader 0;
#X obj 17 24 inlet;
#X text 298 401 pause;
#X obj 303 306 change;
#X text 364 401 play;
#X obj 19 113 list split 1;
#X obj 303 281 expr $f1!=0;
#X obj 303 336 sel 0 1;
#X obj 52 165 v float_param;
#X obj 303 238 v float_param;
#X obj 22 206 t b b b;
#X obj 23 246 v float_param;
#X obj 155 79 outlet;
#X obj 133 298 list prepend set;
#X obj 133 331 list trim;
#X obj 20 541 send to-obs-osc;
#X obj 20 511 oscformat;
#X obj 23 285 * 100;
#X obj 83 138 list split 4;
#X obj 133 268 list append opacity;
#X obj 20 138 t b f;
#X obj 295 478 list prepend;
#X obj 124 383 list split 1;
#X obj 123 236 t a a;
#X obj 296 580 oscformat;
#X obj 327 530 list prepend set;
#X obj 327 554 list trim;
#X obj 295 507 t b a;
#X obj 295 608 send to-obs-osc;
#X msg 293 369 mediaPause;
#X obj 17 78 route source-fader;
#X text 119 112 valeur float;
#X text 180 138 debut de fichier;
#X msg 403 397 mediaRestart;
#X text 73 24 fonction de transfert entre une valeur 0 a 1 et l'opacité
quand 0 \, le media est suspendu pour préserver des ressources \,
possibilité de redémarer la source aussi et;
#X obj 294 423 t a;
#X text 91 509 send opacity to source;
#X text 370 581 send msg to source;
#X msg 375 370 mediaRestart;
#X connect 0 0 29 0;
#X connect 2 0 6 0;
#X connect 4 0 19 0;
#X connect 4 1 17 0;
#X connect 5 0 2 0;
#X connect 6 0 28 0;
#X connect 6 1 37 0;
#X connect 8 0 5 0;
#X connect 9 0 10 0;
#X connect 9 1 8 0;
#X connect 10 0 16 0;
#X connect 12 0 13 0;
#X connect 13 0 15 0;
#X connect 15 0 14 0;
#X connect 16 0 15 0;
#X connect 17 1 22 0;
#X connect 18 0 12 0;
#X connect 19 0 9 0;
#X connect 19 1 7 0;
#X connect 20 0 26 0;
#X connect 21 0 20 1;
#X connect 22 0 21 0;
#X connect 22 1 18 0;
#X connect 23 0 27 0;
#X connect 24 0 25 0;
#X connect 25 0 23 0;
#X connect 26 0 23 0;
#X connect 26 1 24 0;
#X connect 28 0 34 0;
#X connect 29 0 4 0;
#X connect 29 1 11 0;
#X connect 34 0 20 0;
#X connect 37 0 34 0;
#X restore 48 296 pd sources_fader;
#N canvas 520 328 564 452 ctlin 0;
#X obj 46 398 outlet;
#X obj 46 30 ctlin, f 6;
#X obj 45 56 pack;
#X msg 46 80 \$2 \$1;
#X obj 45 179 unpack, f 17;
#X obj 168 211 / 127;
#X text 219 209 vers float 0-1;
#X obj 47 329 list append;
#X obj 45 242 text search t_fader_map_\$0;
#X obj 45 211 list prepend ctl;
#X obj 46 300 text get t_fader_map_\$0 2;
#X obj 47 357 list append;
#X obj 45 266 t a a;
#X obj 156 268 text get t_fader_map_\$0;
#X text 334 269 toute la ligne d argument;
#X text 166 359 valeur en float apres le nom de fonction;
#X obj 61 109 spigot;
#X obj 97 80 tgl 15 0 empty empty empty 17 7 0 10 -262144 -1 -1 0 1
;
#X obj 61 134 print;
#X text 122 30 donnee et connexion au micro controlleur;
#X text 166 329 append \; ajouter apres;
#X connect 1 0 2 0;
#X connect 1 1 2 1;
#X connect 2 0 3 0;
#X connect 3 0 4 0;
#X connect 3 0 16 0;
#X connect 4 0 9 0;
#X connect 4 1 5 0;
#X connect 5 0 7 1;
#X connect 7 0 11 0;
#X connect 8 0 12 0;
#X connect 9 0 8 0;
#X connect 10 0 7 0;
#X connect 11 0 0 0;
#X connect 12 0 10 0;
#X connect 12 1 13 0;
#X connect 13 0 11 1;
#X connect 16 0 18 0;
#X connect 17 0 16 1;
#X restore 42 174 pd ctlin;
#N canvas 119 226 562 504 notein 0;
#X obj 46 351 outlet;
#X obj 183 164 / 127;
#X text 234 162 vers float 0-1;
#X obj 47 282 list append;
#X obj 45 195 text search t_fader_map_\$0;
#X obj 46 253 text get t_fader_map_\$0 2;
#X obj 47 310 list append;
#X obj 45 219 t a a;
#X obj 135 310 text get t_fader_map_\$0;
#X text 313 311 toute la ligne d argument;
#X text 145 281 valeur en float apres le nom de fonction;
#X obj 46 49 notein;
#X obj 45 164 list prepend note;
#X connect 1 0 3 1;
#X connect 3 0 6 0;
#X connect 4 0 7 0;
#X connect 5 0 3 0;
#X connect 6 0 0 0;
#X connect 7 0 5 0;
#X connect 7 1 8 0;
#X connect 8 0 6 1;
#X connect 11 0 12 0;
#X connect 11 1 1 0;
#X connect 12 0 4 0;
#X restore 49 195 pd notein;
#X obj 48 244 t a;
#N canvas 495 420 450 300 netsend-obs-osc 1;
#X obj 26 228 netsend -u -b;
#X obj 26 14 r to-obs-osc;
#X obj 39 166 loadbang;
#X obj 80 69 oscparse;
#X obj 80 43 spigot;
#X obj 124 19 tgl 15 0 empty empty empty 17 7 0 10 -262144 -1 -1 0
1;
#X obj 80 98 print NETSEND-OBS-OSC;
#X msg 37 191 disconnect \, connect 10.0.1.40 3333;
#X connect 1 0 0 0;
#X connect 1 0 4 0;
#X connect 2 0 7 0;
#X connect 3 0 6 0;
#X connect 4 0 3 0;
#X connect 5 0 4 1;
#X connect 7 0 0 0;
#X restore 47 394 pd netsend-obs-osc;
#N canvas 34 0 936 740 oscrouter 1;
#X obj 130 88 netreceive -u -b;
#X obj 130 36 loadbang;
#X obj 135 517 text search t_fader_map_\$0 2;
#X obj 167 435 list length;
#X obj 135 485 list split, f 22;
#X obj 135 408 t a a;
#X obj 167 459 - 1;
#X obj 130 114 oscparse;
#X obj 135 619 list append;
#X obj 135 647 list append;
#X text 558 482 toute la ligne d argument;
#X text 415 413 valeur en float apres le nom de fonction;
#X obj 135 540 t a a;
#X obj 135 567 text get t_fader_map_\$0 2;
#X obj 223 620 text get t_fader_map_\$0;
#X obj 134 684 outlet;
#X obj 70 55 inlet;
#X obj 318 165 spigot;
#X obj 366 166 tgl 15 0 empty empty empty 17 7 0 10 -262144 -1 -1 0
1;
#X msg 130 63 listen 0 \, listen 33332;
#X obj 135 374 list trim;
#X obj 130 176 list split 1;
#X obj 171 204 list split 1;
#X obj 171 229 f;
#X obj 209 235 list split 1;
#X obj 209 260 f;
#X obj 171 288 list append;
#X obj 131 314 list append;
#X msg 9 349 source-fader 4 0;
#X obj 319 190 print oscin;
#X obj 418 155 route reset;
#X obj 480 194 send reset_all;
#N canvas 0 22 611 449 reset 0;
#X obj 23 7 inlet;
#X msg 23 67 gui-out source-fader 1 0 \; gui-out source-fader 2 0 \;
gui-out source-fader 3 0 \; gui-out source-fader 4 0 \; gui-out source-fader
5 0 \; gui-out source-fader 6 0 \; gui-out source-fader 7 0 \; gui-out
source-fader 8 0 \; gui-out source-fader 9 0 \; gui-out source-fader
10 0 \; gui-out source-fader 11 0 \; gui-out source-fader 12 0 \; gui-out
source-fader 13 0 \; gui-out source-fader 14 0 \; gui-out source-fader
15 0 \; gui-out source-fader 16 0 \; gui-out source-fader 17 0 \; gui-out
source-fader 18 0 \; gui-out source-fader 19 0 \; gui-out source-fader
20 0 \; gui-out source-fader 21 0 \; gui-out source-fader 101 0 \;
gui-out source-fader 102 0 \; gui-out source-fader 103 0 \;;
#X obj 23 37 t b b;
#X msg 253 58 1;
#X msg 286 59 0;
#N canvas 0 22 450 300 shutter 0;
#X obj 39 27 inlet;
#X obj 55 118 pdcontrol;
#X msg 55 95 dir;
#X obj 41 63 t f b;
#X obj 32 202 list trim;
#X obj 171 49 tgl 15 0 empty empty empty 17 7 0 10 -262144 -1 -1 0
1;
#X obj 32 178 list prepend;
#X obj 31 232 ggee/shell;
#X obj 55 142 makefilename %s/scripts/shutter.sh;
#X obj 31 256 print shutter_shell;
#X connect 0 0 3 0;
#X connect 1 0 8 0;
#X connect 2 0 1 0;
#X connect 3 0 6 0;
#X connect 3 1 2 0;
#X connect 4 0 7 0;
#X connect 5 0 3 0;
#X connect 6 0 4 0;
#X connect 7 0 9 0;
#X connect 7 1 9 0;
#X connect 8 0 6 1;
#X restore 253 90 pd shutter;
#X obj 87 16 bng 15 250 50 0 empty empty empty 17 7 0 10 -262144 -1
-1;
#X connect 0 0 2 0;
#X connect 2 0 1 0;
#X connect 2 1 4 0;
#X connect 3 0 5 0;
#X connect 4 0 5 0;
#X connect 6 0 2 0;
#X restore 439 222 pd reset;
#X obj 419 223 bng 15 250 50 0 empty empty empty 17 7 0 10 -262144
-1 -1;
#X obj 367 98 print;
#X connect 0 0 7 0;
#X connect 1 0 19 0;
#X connect 2 0 12 0;
#X connect 3 0 6 0;
#X connect 4 0 2 0;
#X connect 4 1 8 1;
#X connect 5 0 4 0;
#X connect 5 1 3 0;
#X connect 6 0 4 1;
#X connect 7 0 17 0;
#X connect 7 0 21 0;
#X connect 7 0 30 0;
#X connect 7 0 34 0;
#X connect 8 0 9 0;
#X connect 9 0 15 0;
#X connect 12 0 13 0;
#X connect 12 1 14 0;
#X connect 13 0 8 0;
#X connect 14 0 9 1;
#X connect 16 0 20 0;
#X connect 17 0 29 0;
#X connect 18 0 17 1;
#X connect 19 0 0 0;
#X connect 20 0 5 0;
#X connect 21 0 27 0;
#X connect 21 1 22 0;
#X connect 22 0 23 0;
#X connect 22 1 24 0;
#X connect 23 0 26 0;
#X connect 24 0 25 0;
#X connect 25 0 26 1;
#X connect 26 0 27 1;
#X connect 27 0 20 0;
#X connect 28 0 20 0;
#X connect 30 0 31 0;
#X connect 30 0 33 0;
#X connect 33 0 32 0;
#X restore 27 150 pd oscrouter;
#N canvas 0 23 682 614 systemcommand_wip 0;
#X obj 105 288 ggee/shell;
#X obj 104 179 text get commandes;
#X obj 103 326 print me;
#N canvas 0 22 1110 413 pas_clair 0;
#X obj 37 37 inlet;
#X obj 37 201 outlet;
#X obj 109 90 list prepend set;
#X obj 109 114 list trim;
#X obj 37 62 t b a;
#X obj 35 123 print;
#X obj 43 170 list trim;
#X connect 0 0 4 0;
#X connect 2 0 3 0;
#X connect 4 1 5 0;
#X connect 4 1 6 0;
#X connect 6 0 1 0;
#X restore 126 235 pd pas_clair;
#X msg 108 152 2;
#X msg 75 93 curl -XPOST -H "Content-type: application/json" -d '{"scene-name":"out"}'
'http://127.0.0.1:4445/emit/SetCurrentScene' \;, f 158;
#X obj 77 49 text define -k commandes;
#A set ls -l \; npx obs-cli SetRecordingFolder='{ "rec-folder": "/Users/gllm/Videos"
}' \; curl -XPOST -H "Content-type: application/json" -d '{"scene-name":"out"}'
'http://127.0.0.1:4445/emit/SetCurrentScene' \;;
#X msg 76 24 write obs-commandes.txt;
#X connect 0 0 2 0;
#X connect 0 1 2 0;
#X connect 1 0 3 0;
#X connect 3 0 0 0;
#X connect 4 0 1 0;
#X connect 5 0 0 0;
#X connect 7 0 6 0;
#X restore 295 30 pd systemcommand_wip;
#N canvas 409 46 624 593 gui 1;
#X obj 20 372 vsl 15 128 0 1 0 0 empty empty empty 0 -9 0 10 -262144
-1 -1 0 1;
#X obj 18 552 outlet;
#X msg 20 509 source-fader 1 \$1;
#X obj 41 346 vsl 15 128 0 1 0 0 empty empty empty 0 -9 0 10 -262144
-1 -1 0 1;
#X msg 41 483 param-fader 1 \$1;
#X msg 69 452 source-fader 4 \$1;
#X msg 70 415 0;
#X msg 107 416 1;
#X msg 22 114 source-fader 101 \$1;
#X msg 33 76 0;
#X msg 25 50 1;
#X obj 22 183 send gui-out;
#X msg 182 67 0;
#X msg 214 67 1;
#X obj 182 135 send gui-out;
#X obj 48 531 r gui-out;
#X msg 182 111 source-fader 102 \$1;
#X msg 355 65 0;
#X msg 387 65 1;
#X obj 355 133 send gui-out;
#X msg 355 109 source-fader 103 \$1;
#X msg 89 61 1;
#X msg 122 62 0;
#X obj 25 26 t b b;
#N canvas 0 22 450 300 shutter 0;
#X obj 39 27 inlet;
#X obj 55 118 pdcontrol;
#X msg 55 95 dir;
#X obj 41 63 t f b;
#X obj 32 202 list trim;
#X obj 171 49 tgl 15 0 empty empty empty 17 7 0 10 -262144 -1 -1 1
1;
#X obj 32 178 list prepend;
#X obj 31 232 ggee/shell;
#X obj 55 142 makefilename %s/scripts/shutter.sh;
#X obj 31 256 print shutter_shell;
#X connect 0 0 3 0;
#X connect 1 0 8 0;
#X connect 2 0 1 0;
#X connect 3 0 6 0;
#X connect 3 1 2 0;
#X connect 4 0 7 0;
#X connect 5 0 3 0;
#X connect 6 0 4 0;
#X connect 7 0 9 0;
#X connect 7 1 9 0;
#X connect 8 0 6 1;
#X restore 89 93 pd shutter;
#X msg 25 2 cue_japon_1_in;
#X connect 0 0 2 0;
#X connect 2 0 1 0;
#X connect 3 0 4 0;
#X connect 4 0 1 0;
#X connect 5 0 1 0;
#X connect 6 0 5 0;
#X connect 7 0 5 0;
#X connect 8 0 11 0;
#X connect 9 0 8 0;
#X connect 10 0 8 0;
#X connect 12 0 16 0;
#X connect 13 0 16 0;
#X connect 15 0 1 0;
#X connect 16 0 14 0;
#X connect 17 0 20 0;
#X connect 18 0 20 0;
#X connect 20 0 19 0;
#X connect 21 0 24 0;
#X connect 22 0 24 0;
#X connect 23 0 10 0;
#X connect 23 1 21 0;
#X connect 25 0 23 0;
#X restore 27 125 pd gui;
#N canvas 29 10 563 660 param_fader 0;
#X obj 17 1 inlet;
#X obj 19 90 list split 1;
#X obj 52 139 v float_param;
#X obj 23 223 v float_param;
#X obj 140 76 outlet;
#X obj 197 320 send to-obs-osc;
#X obj 197 290 oscformat;
#X obj 23 262 * 100;
#X obj 156 138 list split 4;
#X obj 20 115 t b f;
#X obj 118 433 list prepend;
#X obj 199 400 list split 1;
#X obj 118 400 bng 15 250 50 0 empty empty empty 17 7 0 10 -262144
-1 -1;
#X obj 119 553 oscformat;
#X obj 144 497 list prepend set;
#X obj 144 521 list trim;
#X obj 118 465 t b a;
#X obj 119 582 send to-obs-osc;
#X text 80 4 fonction de transfert;
#X obj 22 183 t b;
#X obj 17 55 route param-fader;
#X obj 196 172 list split 3;
#X obj 196 225 list prepend set;
#X obj 196 257 list trim;
#X obj 236 199 print;
#X connect 0 0 20 0;
#X connect 1 0 9 0;
#X connect 1 1 8 0;
#X connect 3 0 7 0;
#X connect 6 0 5 0;
#X connect 8 1 21 0;
#X connect 9 0 19 0;
#X connect 9 1 2 0;
#X connect 10 0 16 0;
#X connect 11 0 10 1;
#X connect 12 0 10 0;
#X connect 13 0 17 0;
#X connect 14 0 15 0;
#X connect 15 0 13 0;
#X connect 16 0 13 0;
#X connect 16 1 14 0;
#X connect 19 0 3 0;
#X connect 20 0 1 0;
#X connect 20 1 4 0;
#X connect 21 0 22 0;
#X connect 21 1 24 0;
#X connect 22 0 23 0;
#X connect 23 0 6 0;
#X restore 48 361 pd param_fader;
#X obj 85 220 spigot;
#X obj 135 220 tgl 15 0 empty empty empty 17 7 0 10 -262144 -1 -1 0
1;
#X obj 85 244 print MIDI_fun;
#N canvas 39 62 450 300 sous-titrage 0;
#X obj 221 98 text define txt-st-jp;
#X obj 164 274;
#X restore 344 108 pd sous-titrage;
#N canvas -541 717 450 300 reset 0;
#X obj 35 16 r reset_all;
#X obj 26 262 outlet;
#X obj 54 185 makefilename horizon-%d;
#X obj 54 101 until;
#X msg 46 64 50;
#X obj 53 124 expr i = i+1 \; i;
#X obj 180 106 v i;
#X obj 105 76 t a b;
#X msg 160 79 0;
#X obj 53 212 route symbol;
#X connect 2 0 9 0;
#X connect 3 0 5 0;
#X connect 4 0 7 0;
#X connect 5 0 2 0;
#X connect 7 0 3 0;
#X connect 7 1 8 0;
#X connect 8 0 6 0;
#X restore 12 103 pd reset;
#X connect 1 0 0 0;
#X connect 2 0 3 0;
#X connect 3 0 11 0;
#X connect 4 0 6 0;
#X connect 4 0 12 0;
#X connect 5 0 6 0;
#X connect 5 0 12 0;
#X connect 6 0 2 0;
#X connect 8 0 6 0;
#X connect 10 0 8 0;
#X connect 12 0 14 0;
#X connect 13 0 12 1;
#X connect 16 0 6 0;
