#N canvas -1091 132 863 829 12;
#X text 300 433 pause;
#X obj 451 299 change;
#X obj 17 117 list split 1;
#X obj 303 285 expr $f1!=0;
#X obj 60 168 v float_param;
#X obj 303 246 v float_param;
#X obj 17 201 t b b b;
#X obj 17 246 v float_param;
#X obj 69 357 list prepend set;
#X obj 69 397 list trim;
#X obj 20 562 send to-obs-osc;
#X obj 20 523 oscformat;
#X obj 17 328 * 100;
#X obj 84 139 list split 4;
#X obj 69 328 list append opacity;
#X obj 17 168 t b f;
#X obj 301 500 list prepend;
#X obj 153 274 list split 1;
#X obj 123 246 t a a;
#X obj 302 624 oscformat;
#X obj 332 568 list prepend set;
#X obj 329 599 list trim;
#X obj 301 539 t b a;
#X obj 302 663 send to-obs-osc;
#X msg 280 411 mediaPause;
#X text 119 116 valeur float;
#X text 180 137 debut de fichier;
#X obj 302 460 t a;
#X text 91 522 send opacity to source;
#X text 372 623 send msg to source;
#X obj 303 351 sel 0;
#X obj 450 326 sel 1;
#X text 499 461 should not;
#X obj 445 219 r cue_reset;
#X obj 445 243 t b;
#X obj 445 267 0;
#X text 491 491 should not;
#X obj 450 350 t b b b;
#X obj 303 316 t a a a;
#X text 395 383 ici quelque choses de klunky;
#X obj 545 340 r panic_play;
#X obj 303 375 t b b;
#X msg 391 420 mediaRestart;
#X msg 494 438 mediaRestart;
#X obj 580 275 bng 15 250 50 0 empty empty empty 17 7 0 10 -262144
-1 -1;
#X obj 526 112 clone;
#X obj 17 61 inlet;
#X connect 1 0 31 0;
#X connect 2 0 15 0;
#X connect 2 1 13 0;
#X connect 3 0 38 0;
#X connect 5 0 3 0;
#X connect 6 0 7 0;
#X connect 6 1 5 0;
#X connect 7 0 12 0;
#X connect 8 0 9 0;
#X connect 9 0 11 0;
#X connect 11 0 10 0;
#X connect 12 0 11 0;
#X connect 13 1 18 0;
#X connect 14 0 8 0;
#X connect 15 0 6 0;
#X connect 15 1 4 0;
#X connect 16 0 22 0;
#X connect 17 0 16 1;
#X connect 18 0 14 0;
#X connect 18 1 17 0;
#X connect 19 0 23 0;
#X connect 20 0 21 0;
#X connect 21 0 19 0;
#X connect 22 0 19 0;
#X connect 22 1 20 0;
#X connect 24 0 27 0;
#X connect 27 0 16 0;
#X connect 30 0 41 0;
#X connect 31 0 37 0;
#X connect 33 0 34 0;
#X connect 34 0 35 0;
#X connect 35 0 1 0;
#X connect 37 2 43 0;
#X connect 38 0 30 0;
#X connect 38 2 1 0;
#X connect 40 0 43 0;
#X connect 41 0 24 0;
#X connect 42 0 27 0;
#X connect 43 0 27 0;
#X connect 44 0 43 0;
#X connect 46 0 2 0;
