#N canvas 353 349 592 499 12;
#X obj 40 17 inlet;
#X obj 190 121 text search mapping;
#X obj 190 145 text get mapping;
#X obj 189 79 int \$1;
#X obj 191 186 list split 1;
#X floatatom 191 218 5 0 0 0 - - -;
#X obj 269 281 list split 1;
#X text 140 218 index;
#X symbolatom 276 327 10 0 0 0 - - -;
#X text 156 282 osc;
#X text 155 328 function;
#X text 157 365 params;
#X obj 355 326 list split 3;
#X obj 356 378 route scale;
#X obj 356 350 list trim;
#N canvas 0 23 450 300 scale 0;
#X obj 37 37 inlet;
#X obj 36 218 outlet;
#X obj 111 36 inlet;
#X obj 112 62 unpack;
#X obj 37 119 expr $f1*($f3-$f2)+$f2;
#X obj 112 87 f 0;
#X obj 172 89 f 1;
#X obj 182 61 t b b;
#X obj 183 37 r init;
#X connect 0 0 4 0;
#X connect 2 0 3 0;
#X connect 3 0 5 0;
#X connect 3 1 6 0;
#X connect 4 0 1 0;
#X connect 5 0 4 1;
#X connect 6 0 4 2;
#X connect 7 0 5 0;
#X connect 7 1 6 0;
#X connect 8 0 7 0;
#X restore 51 410 pd scale;
#X obj 40 41 t a b;
#X obj 39 79 t b a;
#X obj 71 107 symbol;
#X obj 40 171 array get 0 1;
#X obj 40 143 int \$1;
#X obj 48 532 outlet;
#X obj 49 478 oscformat;
#X obj 269 428 list prepend set;
#X obj 269 452 list trim;
#X obj 229 256 list split 1;
#X obj 49 504 list prepend;
#X connect 0 0 16 0;
#X connect 1 0 2 0;
#X connect 2 0 4 0;
#X connect 3 0 1 0;
#X connect 4 0 5 0;
#X connect 4 1 25 0;
#X connect 6 0 8 0;
#X connect 6 0 23 0;
#X connect 6 1 12 0;
#X connect 12 0 14 0;
#X connect 13 0 15 1;
#X connect 14 0 13 0;
#X connect 15 0 22 0;
#X connect 16 0 17 0;
#X connect 16 1 3 0;
#X connect 17 0 20 0;
#X connect 17 1 18 0;
#X connect 18 0 19 2;
#X connect 19 0 15 0;
#X connect 20 0 19 0;
#X connect 22 0 26 0;
#X connect 23 0 24 0;
#X connect 24 0 22 0;
#X connect 25 0 26 1;
#X connect 25 1 6 0;
#X connect 26 0 21 0;
