#N canvas 85 136 509 392 12;
#X obj 154 26 bng 15 250 50 0 empty empty empty 17 7 0 10 -262144 -1
-1;
#X obj 154 49 float \$1;
#X obj 187 95 makefilename sample_%d;
#X obj 108 120 array size;
#X obj 154 4 r init;
#X obj 74 4 inlet;
#X obj 76 93 t f b;
#X obj 154 72 t f f;
#X obj 81 252 array set output;
#X obj 187 119 t a a;
#X obj 81 208 array get 0 1;
#X obj 78 168 expr int($f1*$f2);
#X connect 0 0 1 0;
#X connect 1 0 7 0;
#X connect 2 0 9 0;
#X connect 3 0 11 1;
#X connect 4 0 0 0;
#X connect 5 0 6 0;
#X connect 6 0 11 0;
#X connect 6 1 3 0;
#X connect 7 0 8 1;
#X connect 7 1 2 0;
#X connect 9 0 3 1;
#X connect 9 1 10 2;
#X connect 10 0 8 0;
#X connect 11 0 10 0;
