#N canvas 474 371 450 300 12;
#X obj 89 72 netreceive -u -b;
#X msg 87 32 listen 9999;
#X obj 89 96 oscparse;
#X obj 79 314 ctlout;
#X obj 85 253 expr $f2*127 \; $f1;
#X obj 87 132 list split 1;
#X obj 87 156 f;
#X obj 125 164 list split 1;
#X obj 125 191 f;
#X obj 100 224 pack;
#X connect 0 0 2 0;
#X connect 1 0 0 0;
#X connect 2 0 5 0;
#X connect 4 0 3 0;
#X connect 4 1 3 1;
#X connect 5 0 6 0;
#X connect 5 1 7 0;
#X connect 6 0 9 0;
#X connect 7 0 8 0;
#X connect 8 0 9 1;
#X connect 9 0 4 0;
