#N canvas 723 175 505 430 12;
#N canvas 243 394 379 335 clock 0;
#X obj 17 105 send clock;
#X obj 17 81 metro 16;
#X obj 17 62 tgl 15 0 empty empty empty 17 7 0 10 -262144 -1 -1 1 1
;
#X obj 17 13 loadbang;
#X obj 17 37 int 1;
#X connect 1 0 0 0;
#X connect 2 0 1 0;
#X connect 3 0 4 0;
#X connect 4 0 2 0;
#X restore 52 35 pd clock;
#N canvas 536 196 450 300 init 0;
#X obj 37 28 loadbang;
#X obj 37 86 send init;
#X obj 147 36 bng 15 250 50 0 empty empty empty 17 7 0 10 -262144 -1
-1;
#X connect 0 0 1 0;
#X connect 2 0 1 0;
#X restore 51 10 pd init;
#N canvas 124 276 462 375 output 0;
#X obj 195 19 text define -k mapping;
#A set index \, destination \, OSC Adresse \, function + param \; 0
destin /1 scale 0 1 \; 1 destin /2 scale 0 1 \; 2 destin /3 scale 0
1 \; 3 destin /4 scale 0 1 \; 4 destin /5 scale 0 1 \; 5 destin /5
scale 0 1 \; 6 destin /6 scale 0 1 \; 7 destin /7 scale 0 1 \; 8 destin
/8 scale 0 1 \; 9 destin /9 scale 0 1 \; 10 destin /9 scale 0 1 \;
11 destin /9 scale 0 1 \; 12 destin /9 scale 0 1 \; 13 destin /9 scale
0 1 \; 14 destin /9 scale 0 1 \; 15 destin /9 scale 0 1 \; 16 destin
/9 scale 0 1 \; 17 destin /9 scale 0 1 \; 18 destin /9 scale 0 1 \;
19 destin /9 scale 0 1 \; 20 destin /9 scale 0 1 \; 21 destin /9 scale
0 1 \; 22 destin /9 scale 0 1 \; 23 destin /9 scale 0 1 \; 24 destin
/9 scale 0 1 \; 9 destin /9 scale 0 1 \;;
#X obj 74 22 r clock;
#X msg 73 138 all \$1;
#X obj 73 193 list split 1;
#X obj 113 230 outlet;
#X obj 73 111 symbol output;
#X obj 74 47 t b b;
#N canvas 346 124 656 605 set_output 0;
#X obj 83 30 inlet;
#X obj 83 59 t b b;
#X obj 127 60 expr output[0]=mean_emg[0];
#X obj 83 84 t b b;
#X obj 83 113 t b b;
#X obj 83 142 t b b;
#X obj 83 176 t b b;
#X obj 83 206 t b b;
#X obj 83 237 t b b;
#X obj 127 84 expr output[1]=gyro[7*3+0];
#X obj 127 113 expr output[2]=gyro[7*3+1];
#X obj 127 142 expr output[3]=gyro[7*3+2];
#X obj 127 176 expr output[4]=accel[7*3+0];
#X obj 127 206 expr output[5]=accel[7*3+1];
#X obj 127 237 expr output[6]=accel[7*3+2];
#X obj 83 266 t b b;
#X obj 127 266 expr output[7]=emg[8];
#X obj 83 297 t b b;
#X obj 83 326 t b b;
#X obj 83 355 t b b;
#X obj 83 389 t b b;
#X obj 83 419 t b b;
#X obj 83 450 t b b;
#X obj 83 477 t b b;
#X obj 127 297 expr output[8]=gyro[8*3+0];
#X obj 127 326 expr output[9]=gyro[8*3+1];
#X obj 127 355 expr output[10]=gyro[8*3+2];
#X obj 127 389 expr output[11]=accel[8*3+0];
#X obj 127 419 expr output[12]=accel[8*3+1];
#X obj 127 450 expr output[13]=accel[8*3+2];
#X obj 127 477 expr output[14]=emg[10];
#X obj 84 502 t b b;
#X obj 128 502 expr output[15]=emg[16];
#X obj 84 532 t b b;
#X obj 84 561 t b b;
#X obj 84 590 t b b;
#X obj 84 624 t b b;
#X obj 84 654 t b b;
#X obj 84 685 t b b;
#X obj 128 532 expr output[16]=gyro[11*3+0];
#X obj 128 561 expr output[17]=gyro[11*3+1];
#X obj 128 590 expr output[18]=gyro[11*3+2];
#X obj 128 624 expr output[19]=accel[11*3+0];
#X obj 128 654 expr output[20]=accel[11*3+1];
#X obj 128 685 expr output[21]=accel[11*3+2];
#X obj 84 715 t b b;
#X obj 85 741 t b b;
#X obj 128 715 expr output[22]=emg[12];
#X obj 129 741 expr output[23]=mean_emg[1];
#X obj 85 768 t b b;
#X obj 129 768 expr output[24]=mean_emg[2];
#X text 369 58 1: rOE \, rOI \, lOE \, lOIMeanEMG 2: STEGyro (7) 3:
STEGyro 4: STEGyro 5: STEAccel 6: STEAccel 7: STEAccel 8: rBIEMG 9:
rBIGyro 10: rBIGyro 11: rBIGyro 12: rBIAccel 13: rBIAccel 14: rBIAccel
15: rTREMG 16: lBIEMG 17: lBIGyro 18: lBIGyro 19: lBIGyro 20: lBIAccel
21: lBIAccel 22: lBIAccel 23: lTREMG 24: rFlexExt(1) \, rFlexExt(5)MeanEMG
25: rFlexExt(9) \, rFlexExt(13)MeanEMG;
#X connect 0 0 1 0;
#X connect 1 0 3 0;
#X connect 1 1 2 0;
#X connect 3 0 4 0;
#X connect 3 1 9 0;
#X connect 4 0 5 0;
#X connect 4 1 10 0;
#X connect 5 0 6 0;
#X connect 5 1 11 0;
#X connect 6 0 7 0;
#X connect 6 1 12 0;
#X connect 7 0 8 0;
#X connect 7 1 13 0;
#X connect 8 0 15 0;
#X connect 8 1 14 0;
#X connect 15 0 17 0;
#X connect 15 1 16 0;
#X connect 17 0 18 0;
#X connect 17 1 24 0;
#X connect 18 0 19 0;
#X connect 18 1 25 0;
#X connect 19 0 20 0;
#X connect 19 1 26 0;
#X connect 20 0 21 0;
#X connect 20 1 27 0;
#X connect 21 0 22 0;
#X connect 21 1 28 0;
#X connect 22 0 23 0;
#X connect 22 1 29 0;
#X connect 23 0 31 0;
#X connect 23 1 30 0;
#X connect 31 0 33 0;
#X connect 31 1 32 0;
#X connect 33 0 34 0;
#X connect 33 1 39 0;
#X connect 34 0 35 0;
#X connect 34 1 40 0;
#X connect 35 0 36 0;
#X connect 35 1 41 0;
#X connect 36 0 37 0;
#X connect 36 1 42 0;
#X connect 37 0 38 0;
#X connect 37 1 43 0;
#X connect 38 0 45 0;
#X connect 38 1 44 0;
#X connect 45 0 46 0;
#X connect 45 1 47 0;
#X connect 46 0 49 0;
#X connect 46 1 48 0;
#X connect 49 1 50 0;
#X restore 106 77 pd set_output;
#X obj 73 165 clone cln_map 25;
#X connect 1 0 6 0;
#X connect 2 0 8 0;
#X connect 3 1 4 0;
#X connect 5 0 2 0;
#X connect 6 0 5 0;
#X connect 6 1 7 0;
#X connect 8 0 3 0;
#X restore 56 293 pd output;
#N canvas 870 255 450 300 netsender 0;
#X obj 67 193 clone cln_oscsend 10;
#X obj 261 52 text define -k oscsend;
#A set index routename ip port \; 0 destin 10.0.0.38 9999 \; 1 destin2
127.0.0.1 10000 \;;
#X obj 67 27 inlet;
#X obj 67 65 t a a;
#X obj 121 95 list split 1;
#X obj 121 119 text search oscsend 1;
#X obj 67 168 list prepend;
#X obj 122 142 text get oscsend 0 1;
#X connect 2 0 3 0;
#X connect 3 0 6 0;
#X connect 3 1 4 0;
#X connect 4 0 5 0;
#X connect 5 0 7 0;
#X connect 6 0 0 0;
#X connect 7 0 6 1;
#X restore 56 323 pd netsender;
#N canvas 668 320 466 335 midiout 0;
#X obj 74 9 r clock;
#X obj 74 141 until;
#X obj 138 141 int 0;
#X obj 74 100 t a b;
#X obj 74 174 int;
#X obj 74 199 t a a;
#X obj 124 176 + 1;
#X obj 23 49 bng 15 250 50 0 empty empty empty 17 7 0 10 -262144 -1
-1;
#X obj 74 276 ctlout;
#X obj 33 21 tgl 15 0 empty empty empty 17 7 0 10 -262144 -1 -1 0 1
;
#X obj 74 45 spigot 1;
#X obj 74 70 array size output;
#X obj 74 225 expr output[$f1]*127 \; $f1 \;;
#X connect 0 0 10 0;
#X connect 1 0 4 0;
#X connect 2 0 4 1;
#X connect 3 0 1 0;
#X connect 3 1 2 0;
#X connect 4 0 5 0;
#X connect 5 0 12 0;
#X connect 5 1 6 0;
#X connect 6 0 4 1;
#X connect 7 0 11 0;
#X connect 9 0 10 1;
#X connect 10 0 11 0;
#X connect 11 0 3 0;
#X connect 12 0 8 0;
#X connect 12 1 8 1;
#X restore 149 292 pd midiout;
#N canvas 53 80 993 649 osc_input 0;
#X obj 107 45 r init;
#X msg 107 86 listen 0 \, listen 51337;
#X obj 107 115 netreceive -u -b;
#X obj 107 147 oscparse;
#X obj 107 183 list trim;
#X obj 107 208 route EMG;
#X obj 107 233 route processed;
#X obj 107 289 array set emg;
#X obj 107 260 list;
#X obj 339 66 route accel;
#X obj 352 120 spigot;
#X obj 386 101 tgl 15 0 empty empty empty 17 7 0 10 -262144 -1 -1 0
1;
#X obj 430 64 route gyro;
#X obj 543 117 spigot;
#X obj 577 98 tgl 15 0 empty empty empty 17 7 0 10 -262144 -1 -1 0
1;
#X obj 337 196 list split 1;
#X obj 337 222 f;
#X obj 377 229 list split 1;
#X obj 377 255 f;
#X obj 417 264 list split 1;
#X obj 417 290 f;
#X obj 336 323 expr accel[$f1*3+$f2]=$f3;
#X obj 547 194 list split 1;
#X obj 547 220 f;
#X obj 587 227 list split 1;
#X obj 587 253 f;
#X obj 627 262 list split 1;
#X obj 627 288 f;
#X obj 546 321 expr gyro[$f1*3+$f2]=$f3;
#X obj 352 145 print accel;
#X obj 543 142 print gyro;
#X connect 0 0 1 0;
#X connect 1 0 2 0;
#X connect 2 0 3 0;
#X connect 3 0 4 0;
#X connect 4 0 5 0;
#X connect 5 0 6 0;
#X connect 5 1 9 0;
#X connect 6 0 8 0;
#X connect 8 0 7 0;
#X connect 9 0 10 0;
#X connect 9 0 15 0;
#X connect 9 1 12 0;
#X connect 10 0 29 0;
#X connect 11 0 10 1;
#X connect 12 0 13 0;
#X connect 12 0 22 0;
#X connect 13 0 30 0;
#X connect 14 0 13 1;
#X connect 15 0 16 0;
#X connect 15 1 17 0;
#X connect 16 0 21 0;
#X connect 17 0 18 0;
#X connect 17 1 19 0;
#X connect 18 0 21 1;
#X connect 19 0 20 0;
#X connect 20 0 21 2;
#X connect 22 0 23 0;
#X connect 22 1 24 0;
#X connect 23 0 28 0;
#X connect 24 0 25 0;
#X connect 24 1 26 0;
#X connect 25 0 28 1;
#X connect 26 0 27 0;
#X connect 27 0 28 2;
#X restore 54 80 pd osc_input;
#N canvas 548 131 450 300 midiin 0;
#X obj 71 14 ctlin;
#X obj 68 80 array set emg;
#X obj 70 53 / 127;
#X connect 0 0 2 0;
#X connect 0 1 1 1;
#X connect 2 0 1 0;
#X restore 53 58 pd midiin;
#X obj 56 170 array define -yrange 0 1 accel 50;
#X obj 56 196 array define -yrange 0 1 gyro 50;
#X obj 55 144 array define -yrange 0 1 emg 27;
#N canvas 432 360 831 348 process_moyennes 0;
#X obj 34 17 r clock;
#X text 125 15 calcul la moyenne de 4 valeurs depuis EMG;
#X obj 33 137 array get emg;
#X msg 66 108 4;
#X text 140 107 4 valeurs;
#X obj 33 75 t a b;
#X text 82 44 debut de la valeurs dans l'array EMG (a changer);
#X msg 33 50 2;
#X obj 33 182 expr mean_emg[0]=($f1+$f2+$f3+$f4)/4;
#X obj 299 87 expr mean_emg[1]=(emg[1]+emg[5])/2;
#X obj 19 290 array define -yrange 0 1 mean_emg 3;
#X obj 297 126 expr mean_emg[2]=(emg[9]+emg[13])/2;
#X connect 0 0 7 0;
#X connect 0 0 9 0;
#X connect 0 0 11 0;
#X connect 2 0 8 0;
#X connect 3 0 2 1;
#X connect 5 0 2 0;
#X connect 5 1 3 0;
#X connect 7 0 5 0;
#X restore 77 113 pd process_moyennes;
#X obj 55 234 array define -yrange 0 1 output 25;
#X connect 2 0 3 0;
