#N canvas 676 413 450 300 12;
#N canvas 243 394 379 335 clock 1;
#X obj 17 105 send clock;
#X obj 17 81 metro 16;
#X obj 17 62 tgl 15 0 empty empty empty 17 7 0 10 -262144 -1 -1 1 1
;
#X obj 17 13 loadbang;
#X obj 17 37 int 1;
#X connect 1 0 0 0;
#X connect 2 0 1 0;
#X connect 3 0 4 0;
#X connect 4 0 2 0;
#X restore 52 35 pd clock;
#N canvas 523 132 450 300 init 0;
#X obj 37 28 loadbang;
#X obj 37 86 send init;
#X obj 147 36 bng 15 250 50 0 empty empty empty 17 7 0 10 -262144 -1
-1;
#X connect 0 0 1 0;
#X connect 2 0 1 0;
#X restore 51 10 pd init;
#N canvas 728 332 462 375 output 0;
#X obj 195 19 text define -k mapping;
#A set index \, destination \, OSC Adresse \, function + param \; 0
destin /tralala scale 0 100 \; 1 destin /trop scale 0 50 \; 2 destin
/stuff scale 33 150 \; 3 destin /help scale -1 1 \; 4 destin /joo scale
-3 3 \; 5 destin /fte scale 0 127 \; 6 destin /adsfa scale -1 1 \;
7 destin /faosdfk scale -1 1 \; 8 destin /asdofk scale -1 1 \; 9 destin
/paf scale -2 2 \;;
#X obj 82 23 r clock;
#X msg 82 91 all \$1;
#X obj 82 146 list split 1;
#X obj 82 118 clone cln_map 10;
#X obj 122 183 outlet;
#X obj 82 64 symbol emg;
#X connect 1 0 6 0;
#X connect 2 0 4 0;
#X connect 3 1 5 0;
#X connect 4 0 3 0;
#X connect 6 0 2 0;
#X restore 55 200 pd output;
#N canvas 521 320 450 300 netsender 0;
#X obj 65 196 clone cln_oscsend 10;
#X obj 261 52 text define -k oscsend;
#A set index routename ip port \; 0 destin 127.0.0.1 9999 \; 1 destin2
127.0.0.1 10000 \;;
#X obj 67 27 inlet;
#X obj 67 68 t a a;
#X obj 121 98 list split 1;
#X obj 121 122 text search oscsend 1;
#X obj 65 171 list prepend;
#X obj 122 145 text get oscsend 0 1;
#X connect 2 0 3 0;
#X connect 3 0 6 0;
#X connect 3 1 4 0;
#X connect 4 0 5 0;
#X connect 5 0 7 0;
#X connect 6 0 0 0;
#X connect 7 0 6 1;
#X restore 55 227 pd netsender;
#N canvas 668 320 466 335 midiout 0;
#X obj 74 9 r clock;
#X obj 74 141 until;
#X obj 138 141 int 0;
#X obj 74 100 t a b;
#X obj 74 174 int;
#X obj 74 199 t a a;
#X obj 124 176 + 1;
#X obj 23 49 bng 15 250 50 0 empty empty empty 17 7 0 10 -262144 -1
-1;
#X obj 74 276 ctlout;
#X obj 74 70 array size emg;
#X obj 74 225 expr emg[$f1]*127 \; $f1 \;;
#X obj 74 45 spigot;
#X obj 33 21 tgl 15 0 empty empty empty 17 7 0 10 -262144 -1 -1 0 1
;
#X connect 0 0 11 0;
#X connect 1 0 4 0;
#X connect 2 0 4 1;
#X connect 3 0 1 0;
#X connect 3 1 2 0;
#X connect 4 0 5 0;
#X connect 5 0 10 0;
#X connect 5 1 6 0;
#X connect 6 0 4 1;
#X connect 7 0 9 0;
#X connect 9 0 3 0;
#X connect 10 0 8 0;
#X connect 10 1 8 1;
#X connect 11 0 9 0;
#X connect 12 0 11 1;
#X restore 162 199 pd midiout;
#N canvas 546 136 703 411 osc_input 1;
#X obj 107 45 r init;
#X msg 107 86 listen 0 \, listen 51337;
#X obj 107 115 netreceive -u -b;
#X obj 107 147 oscparse;
#X obj 107 183 list trim;
#X obj 107 208 route EMG;
#X obj 107 233 route processed;
#X obj 107 289 array set emg;
#X obj 107 260 list;
#X connect 0 0 1 0;
#X connect 1 0 2 0;
#X connect 2 0 3 0;
#X connect 3 0 4 0;
#X connect 4 0 5 0;
#X connect 5 0 6 0;
#X connect 6 0 8 0;
#X connect 8 0 7 0;
#X restore 54 80 pd osc_input;
#X obj 55 121 array define -yrange 0 1 emg 10;
#N canvas 548 131 450 300 midiin 0;
#X obj 71 14 ctlin;
#X obj 68 80 array set emg;
#X obj 70 53 / 127;
#X connect 0 0 2 0;
#X connect 0 1 1 1;
#X connect 2 0 1 0;
#X restore 53 58 pd midiin;
#X connect 2 0 3 0;
