#N canvas 967 32 713 945 12;
#X obj 181 148 text define matrice_osc;
#X msg 229 93 read -c matrice_osc_leapmotion_reach.txt;
#X msg 233 118 write -c matrice_osc_leapmotion_reach.txt;
#X obj 228 64 loadbang;
#X text 40 11 flux OSC qui va entrer;
#X obj 44 49 inlet;
#N canvas 191 502 450 300 ex_message 1;
#X obj 42 244 outlet;
#X msg 58 34 /Left/presence 0;
#X msg 51 12 /Left/presence 1;
#X msg 86 113 /Right/TYPE_THUMB/knuckle 1 1 1;
#X msg 95 144 /Right/TYPE_THUMB/knuckle -1 -1 -1;
#X msg 76 74 /Right/TYPE_THUMB/knuckle \$1 0.4 -0.23;
#X obj 277 39 hsl 128 15 -1 1 0 0 empty empty empty -2 -8 0 10 -262144
-1 -1 0 1;
#X connect 1 0 0 0;
#X connect 2 0 0 0;
#X connect 3 0 0 0;
#X connect 4 0 0 0;
#X connect 5 0 0 0;
#X connect 6 0 5 0;
#X restore 87 49 pd ex_message;
#X obj 45 108 t a;
#X obj 48 271 text search matrice_osc;
#X obj 46 189 list split 1;
#X obj 48 315 text get matrice_osc;
#X obj 81 362 list split 1;
#X symbolatom 79 823 35 0 0 0 - - -;
#X obj 122 395 list split 1;
#N canvas 0 23 450 300 b 0;
#X obj 46 31 inlet;
#X obj 48 265 outlet;
#X obj 315 37 inlet;
#X obj 315 72 route data;
#X text 185 267 comment;
#X obj 75 75 t b;
#X connect 0 0 5 0;
#X connect 2 0 3 0;
#X restore 123 696 pd b;
#N canvas 0 23 450 300 f 0;
#X obj 73 32 inlet;
#X obj 74 231 outlet;
#X obj 297 48 inlet;
#X connect 0 0 1 0;
#X restore 223 697 pd f;
#X obj 270 443 list split 1;
#X text 375 444 <- canal midi;
#X text 370 394 <- type de donnee;
#X text 364 358 <- adresse OSC;
#X obj 272 468 list split 1;
#X obj 556 253 t a;
#X obj 561 569 t a;
#X obj 221 638 t a a a;
#X obj 272 496 list split 1;
#X obj 276 524 list split 1;
#X text 383 496 <- min;
#X text 384 527 <- max;
#X obj 150 495 list prepend min;
#X obj 149 523 list prepend max;
#X obj 155 468 list prepend id;
#X obj 134 556 t a;
#X obj 86 216 list prepend data;
#X obj 122 639 sel b f3 f;
#N canvas -16 30 982 917 f3 0;
#X obj 104 39 inlet;
#X obj 94 745 outlet;
#X obj 345 34 inlet;
#X obj 344 102 route data;
#X obj 104 90 bng 15 250 50 0 empty empty empty 17 7 0 10 -262144 -1
-1;
#X obj 786 112 route id;
#X obj 608 113 route min;
#X obj 689 113 route max;
#X obj 320 158 list split 1;
#X obj 414 158 list split 1;
#X obj 511 158 list split 1;
#X floatatom 322 189 5 0 0 0 - - -;
#X floatatom 414 192 5 0 0 0 - - -;
#X floatatom 512 193 5 0 0 0 - - -;
#X obj 345 65 list trim;
#X text 299 189 x;
#X text 388 191 y;
#X text 489 189 z;
#X text 146 255 normalisation 0-1;
#X obj 324 231 expr ($f1-$f2)/(abs($f2)+$f3);
#X obj 412 263 expr ($f1-$f2)/(abs($f2)+$f3);
#X obj 511 301 expr ($f1-$f2)/(abs($f2)+$f3);
#X obj 607 191 t a a a;
#X obj 687 192 t a a a;
#X floatatom 323 328 5 0 0 0 - - -;
#X floatatom 413 326 5 0 0 0 - - -;
#X floatatom 511 328 5 0 0 0 - - -;
#X obj 320 130 list;
#X text 648 762 passage vers donnée 14 bit;
#X obj 782 321 t a a a;
#X obj 796 454 + 1;
#X obj 821 476 + 2;
#X obj 772 429 + 0;
#N canvas 0 23 1047 673 conversion14bit 0;
#X obj 33 14 inlet;
#X obj 308 9 inlet;
#X obj 33 51 * 16384;
#X obj 33 81 int;
#X obj 33 147 >> 7;
#X obj 33 114 t a a;
#X obj 66 174 % 128;
#X text 80 145 msb;
#X text 118 172 lsb;
#X obj 31 274 list prepend;
#X obj 127 212 t a a;
#X obj 159 242 + 32;
#X obj 60 311 list prepend;
#X obj 27 354 outlet;
#X text 111 14 data in;
#X text 361 14 index in;
#X connect 0 0 2 0;
#X connect 1 0 10 0;
#X connect 2 0 3 0;
#X connect 3 0 5 0;
#X connect 4 0 9 0;
#X connect 5 0 4 0;
#X connect 5 1 6 0;
#X connect 6 0 12 0;
#X connect 9 0 13 0;
#X connect 10 0 9 1;
#X connect 10 1 11 0;
#X connect 11 0 12 1;
#X connect 12 0 13 0;
#X restore 501 764 pd conversion14bit;
#X obj 323 556 t a;
#X obj 861 111 route port;
#X obj 323 357 expr int($f1*127);
#X obj 412 386 expr int($f1*127);
#X obj 512 414 expr int($f1*127);
#X obj 323 497 list append;
#X obj 411 497 list append;
#X obj 511 497 list append;
#X obj 325 631 list append;
#X obj 785 219 i;
#X obj 844 220 i;
#X obj 787 160 t a b;
#X obj 861 161 t b a;
#X obj 845 577 t a;
#X obj 93 698 list prepend ctlout;
#X text 96 377 midification 7 bits 0-127;
#X text 44 6 bang le calcul quand le type de data entre;
#X connect 0 0 4 0;
#X connect 2 0 14 0;
#X connect 3 0 27 1;
#X connect 3 1 6 0;
#X connect 4 0 27 0;
#X connect 5 0 45 0;
#X connect 5 1 35 0;
#X connect 6 0 22 0;
#X connect 6 1 7 0;
#X connect 7 0 23 0;
#X connect 7 1 5 0;
#X connect 8 0 11 0;
#X connect 8 1 9 0;
#X connect 9 0 12 0;
#X connect 9 1 10 0;
#X connect 10 0 13 0;
#X connect 11 0 19 0;
#X connect 12 0 20 0;
#X connect 13 0 21 0;
#X connect 14 0 3 0;
#X connect 19 0 24 0;
#X connect 20 0 25 0;
#X connect 21 0 26 0;
#X connect 22 0 19 1;
#X connect 22 1 20 1;
#X connect 22 2 21 1;
#X connect 23 0 19 2;
#X connect 23 1 20 2;
#X connect 23 2 21 2;
#X connect 24 0 36 0;
#X connect 25 0 37 0;
#X connect 26 0 38 0;
#X connect 27 0 8 0;
#X connect 29 0 32 0;
#X connect 29 1 30 0;
#X connect 29 2 31 0;
#X connect 30 0 40 1;
#X connect 31 0 41 1;
#X connect 32 0 39 1;
#X connect 34 0 42 0;
#X connect 35 0 46 0;
#X connect 36 0 39 0;
#X connect 37 0 40 0;
#X connect 38 0 41 0;
#X connect 39 0 34 0;
#X connect 40 0 34 0;
#X connect 41 0 34 0;
#X connect 42 0 48 0;
#X connect 43 0 29 0;
#X connect 44 0 47 0;
#X connect 45 0 43 0;
#X connect 45 1 44 0;
#X connect 46 0 43 0;
#X connect 46 1 44 0;
#X connect 47 0 42 1;
#X connect 48 0 1 0;
#X restore 169 697 pd f3;
#N canvas 0 23 852 624 cc14bit 0;
#X obj 113 84 * 16384;
#X obj 117 53 hsl 16384 15 0 1 0 0 empty empty empty -2 -8 0 10 -262144
-1 -1 0 1;
#X floatatom 13 115 5 0 0 0 - - -;
#X obj 113 108 int;
#X floatatom 24 203 5 0 0 0 - - -;
#X obj 113 192 >> 7;
#X text 188 197 bitshift 7 pour MSB;
#X obj 113 141 t a a;
#X obj 145 166 % 128;
#X floatatom 119 280 5 0 0 0 - - -;
#X floatatom 167 277 5 0 0 0 - - -;
#X text 205 171 modulo 128 pour LSB;
#X connect 0 0 3 0;
#X connect 1 0 0 0;
#X connect 3 0 2 0;
#X connect 3 0 7 0;
#X connect 5 0 4 0;
#X connect 5 0 9 0;
#X connect 7 0 5 0;
#X connect 7 1 8 0;
#X connect 8 0 10 0;
#X restore 542 628 pd cc14bit;
#X text 376 467 <- id;
#X obj 139 442 list prepend port;
#X obj 123 787 ctlout;
#X obj 123 749 unpack 1 1 1;
#X connect 1 0 0 0;
#X connect 2 0 0 0;
#X connect 3 0 1 0;
#X connect 5 0 7 0;
#X connect 6 0 7 0;
#X connect 7 0 9 0;
#X connect 8 0 10 0;
#X connect 9 0 8 0;
#X connect 9 1 32 0;
#X connect 10 0 11 0;
#X connect 11 0 12 0;
#X connect 11 1 13 0;
#X connect 13 0 33 0;
#X connect 13 1 16 0;
#X connect 14 0 39 0;
#X connect 15 0 39 0;
#X connect 16 0 37 0;
#X connect 16 1 20 0;
#X connect 20 0 30 0;
#X connect 20 1 24 0;
#X connect 21 0 22 0;
#X connect 22 0 23 0;
#X connect 23 0 14 1;
#X connect 23 1 34 1;
#X connect 23 2 15 1;
#X connect 24 0 28 0;
#X connect 24 1 25 0;
#X connect 25 0 29 0;
#X connect 28 0 31 0;
#X connect 29 0 31 0;
#X connect 30 0 31 0;
#X connect 31 0 23 0;
#X connect 32 0 21 0;
#X connect 33 0 14 0;
#X connect 33 1 34 0;
#X connect 33 2 15 0;
#X connect 34 0 39 0;
#X connect 37 0 31 0;
#X connect 39 0 38 0;
#X connect 39 1 38 1;
#X connect 39 2 38 2;
